<?xml version="1.0" encoding="utf-8"?>
<!-- Generated by IcoMoon.io -->
<svg version="1.1" xmlns="http://www.w3.org/2000/svg" xmlns:xlink="http://www.w3.org/1999/xlink" width="752" height="32" viewBox="0 0 752 32">
<svg id="icon-plus" width="32" height="32" viewBox="0 0 32 32" x="0" y="0">
<path fill="none" stroke="#fbfcfc" stroke-linejoin="round" stroke-linecap="round" stroke-miterlimit="4" stroke-width="2.6667" d="M16 6.667v18.667"></path>
<path fill="none" stroke="#fbfcfc" stroke-linejoin="round" stroke-linecap="round" stroke-miterlimit="4" stroke-width="2.6667" d="M6.667 16h18.667"></path>
</svg>
<svg id="icon-trash" width="32" height="32" viewBox="0 0 32 32" x="48" y="0">
<path fill="none" stroke="#fbfcfc" stroke-linejoin="round" stroke-linecap="round" stroke-miterlimit="4" stroke-width="3" d="M12 2.222h8"></path>
<path fill="none" stroke="#fbfcfc" stroke-linejoin="round" stroke-linecap="round" stroke-miterlimit="4" stroke-width="3" d="M4 8h24M25.333 8l-0.935 14.026c-0.14 2.104-0.21 3.156-0.665 3.954-0.4 0.702-1.004 1.267-1.731 1.62-0.826 0.4-1.881 0.4-3.99 0.4h-4.025c-2.109 0-3.163 0-3.99-0.4-0.727-0.353-1.331-0.917-1.731-1.62-0.455-0.798-0.525-1.85-0.665-3.954l-0.935-14.026"></path>
</svg>
<svg id="icon-edit" width="32" height="32" viewBox="0 0 32 32" x="96" y="0">
<path fill="none" stroke="#fbfcfc" stroke-linejoin="round" stroke-linecap="round" stroke-miterlimit="4" stroke-width="3" d="M3.835 24.154c0.061-0.551 0.092-0.827 0.175-1.085 0.074-0.229 0.179-0.446 0.311-0.647 0.149-0.226 0.345-0.422 0.737-0.814l17.608-17.608c1.473-1.473 3.861-1.473 5.333 0s1.473 3.861 0 5.333l-17.608 17.608c-0.392 0.392-0.588 0.588-0.814 0.737-0.201 0.132-0.418 0.237-0.647 0.311-0.258 0.083-0.533 0.114-1.085 0.175l-4.513 0.501 0.501-4.512z"></path>
</svg>
<svg id="icon-logo" width="25" height="32" viewBox="0 0 25 32" x="144" y="0">
<path fill="#47523f" d="M15.381 1.077c-6.3-1.806-12.798 1.513-14.486 7.399-1.625 5.666 4.945 21.876 5.226 22.563l0.262 0.642c0.031 0.075 0.097 0.133 0.178 0.157 0.082 0.023 0.168 0.009 0.235-0.038l0.562-0.406c0.602-0.434 14.764-10.699 16.388-16.365 1.688-5.886-2.065-12.145-8.365-13.951zM13.416 7.928c2.257 0.647 3.601 2.889 2.996 4.997-0.604 2.108-2.932 3.297-5.189 2.65-2.256-0.647-3.601-2.89-2.996-4.997 0.605-2.109 2.933-3.297 5.189-2.65z"></path>
</svg>
</svg>
